<svg width="26" height="22" viewBox="0 0 26 22" fill="none" xmlns="http://www.w3.org/2000/svg">
<path d="M6.68271 4.66664V5.76039V4.66664ZM23.1427 4.66664V3.57289V4.66664ZM24.5262 6.58614L23.4885 6.24025V6.24027L24.5262 6.58614ZM22.8467 11.6248L21.8091 11.2789L22.8467 11.6248ZM20.3699 13.6046L20.2611 12.5163L20.3699 13.6046ZM10.0911 14.6324L10.2 15.7208L10.0911 14.6324ZM5.28049 6.5256L4.22881 6.82608L5.28049 6.5256ZM6.99647 12.5316L8.04813 12.231L6.99647 12.5316ZM5.15248 10.0585C5.31142 10.6413 5.91269 10.9849 6.49547 10.8259C7.07825 10.6671 7.42183 10.0658 7.26289 9.48293L5.15248 10.0585ZM4.60635 3.89923L3.55114 4.18702L4.60635 3.89923ZM1.79242 1.75L1.79243 2.84375L1.79242 1.75ZM1.1035 0.656265C0.499445 0.656265 0.00975104 1.14597 0.00976563 1.75003C0.00978021 2.35409 0.499474 2.84376 1.10353 2.84376L1.1035 0.656265ZM6.68271 5.76039H23.1427V3.57289H6.68271V5.76039ZM23.4885 6.24027L21.8091 11.2789L23.8843 11.9706L25.5639 6.93201L23.4885 6.24027ZM20.2611 12.5163L9.9823 13.5441L10.2 15.7208L20.4788 14.693L20.2611 12.5163ZM4.22881 6.82608L5.9448 12.832L8.04813 12.231L6.33215 6.22513L4.22881 6.82608ZM21.8091 11.2789C21.5819 11.9602 20.9758 12.4448 20.2611 12.5163L20.4788 14.693C22.0512 14.5356 23.3845 13.4697 23.8843 11.9706L21.8091 11.2789ZM23.1427 5.76039C23.3915 5.76039 23.5672 6.00418 23.4885 6.24025L25.5639 6.93201C26.1147 5.27946 24.8847 3.57289 23.1427 3.57289V5.76039ZM6.68271 3.57289C4.98716 3.57289 3.76302 5.19576 4.22881 6.82608L6.33215 6.22513C6.26561 5.99222 6.44049 5.76039 6.68271 5.76039V3.57289ZM9.9823 13.5441C9.10485 13.6319 8.29039 13.0789 8.04813 12.231L5.9448 12.832C6.47777 14.6973 8.26956 15.9139 10.2 15.7208L9.9823 13.5441ZM19.3327 19.6146C19.1313 19.6146 18.9681 19.4514 18.9681 19.25H16.7806C16.7806 20.6594 17.9232 21.8021 19.3327 21.8021V19.6146ZM18.9681 19.25C18.9681 19.0486 19.1313 18.8854 19.3327 18.8854V16.6979C17.9232 16.6979 16.7806 17.8405 16.7806 19.25H18.9681ZM19.3327 18.8854C19.5341 18.8854 19.6973 19.0486 19.6973 19.25H21.8848C21.8848 17.8405 20.7422 16.6979 19.3327 16.6979V18.8854ZM19.6973 19.25C19.6973 19.4514 19.5341 19.6146 19.3327 19.6146V21.8021C20.7422 21.8021 21.8848 20.6594 21.8848 19.25H19.6973ZM10.5827 19.6146C10.3813 19.6146 10.2181 19.4514 10.2181 19.25H8.0306C8.0306 20.6594 9.1732 21.8021 10.5827 21.8021V19.6146ZM10.2181 19.25C10.2181 19.0486 10.3813 18.8854 10.5827 18.8854V16.6979C9.1732 16.6979 8.0306 17.8405 8.0306 19.25H10.2181ZM10.5827 18.8854C10.7841 18.8854 10.9473 19.0486 10.9473 19.25H13.1348C13.1348 17.8405 11.9922 16.6979 10.5827 16.6979V18.8854ZM10.9473 19.25C10.9473 19.4514 10.7841 19.6146 10.5827 19.6146V21.8021C11.9922 21.8021 13.1348 20.6594 13.1348 19.25H10.9473ZM7.26289 9.48293L5.66157 3.61145L3.55114 4.18702L5.15248 10.0585L7.26289 9.48293ZM1.7924 0.65625L1.1035 0.656265L1.10353 2.84376L1.79243 2.84375L1.7924 0.65625ZM5.66157 3.61145C5.18571 1.86665 3.60093 0.656235 1.7924 0.65625L1.79243 2.84375C2.61448 2.84374 3.33484 3.39394 3.55114 4.18702L5.66157 3.61145Z" fill="#4FA9EE"/>
</svg>
