<svg width="20" height="20" viewBox="0 0 20 20" fill="none" xmlns="http://www.w3.org/2000/svg">
<g clip-path="url(#clip0_1_5171)">
<path fill-rule="evenodd" clip-rule="evenodd" d="M6.97812 5.78291H13.0236C13.7889 5.77769 14.5295 6.05345 15.105 6.55798C15.6811 7.06305 16.0516 7.76218 16.1461 8.52251L16.8294 13.9887C16.8843 14.4303 16.8443 14.8789 16.712 15.3037C16.5797 15.7285 16.3583 16.1202 16.0624 16.4525C15.7666 16.7848 15.4032 17.0502 14.9965 17.2307C14.5906 17.411 14.151 17.5026 13.707 17.4996H6.29478C5.85072 17.5026 5.41109 17.411 5.00521 17.2307C4.59856 17.0502 4.23516 16.7848 3.93931 16.4525C3.64347 16.1202 3.422 15.7285 3.28973 15.3037C3.15745 14.8789 3.11742 14.4307 3.17231 13.9891L3.85564 8.52251C3.9502 7.76236 4.32073 7.06295 4.89675 6.55798C5.47225 6.05345 6.21286 5.77769 6.97812 5.78291ZM6.9711 7.03289C6.5114 7.02938 6.06644 7.19488 5.72076 7.49792C5.37508 7.80097 5.15278 8.22044 5.0961 8.67664L4.41276 14.1433C4.41275 14.1434 4.41277 14.1433 4.41276 14.1433C4.37986 14.4082 4.40387 14.6772 4.48321 14.9321C4.56258 15.187 4.69546 15.422 4.87296 15.6214C5.05047 15.8208 5.26851 15.98 5.5125 16.0883C5.75649 16.1966 6.0208 16.2516 6.28776 16.2496L6.29253 16.2496L13.714 16.2496C13.9809 16.2516 14.2452 16.1966 14.4892 16.0883C14.7332 15.98 14.9513 15.8208 15.1288 15.6214C15.3063 15.422 15.4392 15.187 15.5185 14.9321C15.5979 14.6772 15.6219 14.4084 15.589 14.1435C15.589 14.1434 15.589 14.1435 15.589 14.1435L14.9057 8.6771C14.849 8.2209 14.6266 7.80097 14.281 7.49792C13.9353 7.19488 13.4903 7.02938 13.0306 7.03289L13.0259 7.03293L6.9711 7.03289Z" fill="#4FA9EE"/>
<path fill-rule="evenodd" clip-rule="evenodd" d="M9.99948 3.75C9.47126 3.75 8.96467 3.95984 8.59116 4.33335C8.21765 4.70686 8.00781 5.21344 8.00781 5.74167V5.78333H11.9911V5.74167C11.9911 5.21344 11.7813 4.70686 11.4078 4.33335C11.0343 3.95984 10.5277 3.75 9.99948 3.75ZM7.70728 3.44946C8.31521 2.84153 9.13974 2.5 9.99948 2.5C10.8592 2.5 11.6838 2.84153 12.2917 3.44946C12.8996 4.05739 13.2411 4.88192 13.2411 5.74167V6.40833C13.2411 6.75351 12.9613 7.03333 12.6161 7.03333H7.38281C7.03763 7.03333 6.75781 6.75351 6.75781 6.40833V5.74167C6.75781 4.88192 7.09935 4.05739 7.70728 3.44946Z" fill="#4FA9EE"/>
</g>
<defs>
<clipPath id="clip0_1_5171">
<rect width="20" height="20" fill="white"/>
</clipPath>
</defs>
</svg>
