<svg width="20" height="20" viewBox="0 0 20 20" fill="none" xmlns="http://www.w3.org/2000/svg">
<path d="M6.10412 6.66665V7.29165V6.66665ZM15.5099 6.66665V6.04165V6.66665ZM16.3004 7.76351L15.7074 7.56586V7.56587L16.3004 7.76351ZM15.3407 10.6427L14.7478 10.4451L15.3407 10.6427ZM13.9254 11.7741L13.8632 11.1522L13.9254 11.7741ZM8.0518 12.3614L8.11398 12.9833L8.0518 12.3614ZM5.30286 7.72892L4.7019 7.90062L5.30286 7.72892ZM6.28342 11.1609L6.88437 10.9892L6.28342 11.1609ZM5.22971 9.74773C5.32053 10.0807 5.66412 10.2771 5.99713 10.1862C6.33015 10.0955 6.52648 9.7519 6.43566 9.41882L5.22971 9.74773ZM4.91763 6.22813L4.31466 6.39258L4.91763 6.22813ZM3.30967 5L3.30968 5.625L3.30967 5ZM2.91601 4.37501C2.57083 4.37501 2.29101 4.65484 2.29102 5.00002C2.29102 5.34519 2.57085 5.62501 2.91602 5.62501L2.91601 4.37501ZM6.10412 7.29165H15.5099V6.04165H6.10412V7.29165ZM15.7074 7.56587L14.7478 10.4451L15.9336 10.8403L16.8934 7.96115L15.7074 7.56587ZM13.8632 11.1522L7.98961 11.7395L8.11398 12.9833L13.9876 12.396L13.8632 11.1522ZM4.7019 7.90062L5.68247 11.3326L6.88437 10.9892L5.90381 7.55722L4.7019 7.90062ZM14.7478 10.4451C14.6179 10.8344 14.2716 11.1113 13.8632 11.1522L13.9876 12.396C14.8861 12.3061 15.648 11.697 15.9336 10.8403L14.7478 10.4451ZM15.5099 7.29165C15.652 7.29165 15.7524 7.43096 15.7074 7.56586L16.8934 7.96115C17.2081 7.01683 16.5053 6.04165 15.5099 6.04165V7.29165ZM6.10412 6.04165C5.13524 6.04165 4.43573 6.96901 4.7019 7.90062L5.90381 7.55722C5.86578 7.42412 5.96572 7.29165 6.10412 7.29165V6.04165ZM7.98961 11.7395C7.48821 11.7897 7.0228 11.4737 6.88437 10.9892L5.68247 11.3326C5.98702 12.3985 7.0109 13.0936 8.11398 12.9833L7.98961 11.7395ZM13.3327 15.2083C13.2176 15.2083 13.1244 15.1151 13.1244 15H11.8744C11.8744 15.8054 12.5273 16.4583 13.3327 16.4583V15.2083ZM13.1244 15C13.1244 14.8849 13.2176 14.7917 13.3327 14.7917V13.5417C12.5273 13.5417 11.8744 14.1946 11.8744 15H13.1244ZM13.3327 14.7917C13.4478 14.7917 13.541 14.8849 13.541 15H14.791C14.791 14.1946 14.1381 13.5417 13.3327 13.5417V14.7917ZM13.541 15C13.541 15.1151 13.4478 15.2083 13.3327 15.2083V16.4583C14.1381 16.4583 14.791 15.8054 14.791 15H13.541ZM8.33268 15.2083C8.21762 15.2083 8.12435 15.1151 8.12435 15H6.87435C6.87435 15.8054 7.52727 16.4583 8.33268 16.4583V15.2083ZM8.12435 15C8.12435 14.8849 8.21762 14.7917 8.33268 14.7917V13.5417C7.52727 13.5417 6.87435 14.1946 6.87435 15H8.12435ZM8.33268 14.7917C8.44777 14.7917 8.54102 14.8849 8.54102 15H9.79102C9.79102 14.1946 9.1381 13.5417 8.33268 13.5417V14.7917ZM8.54102 15C8.54102 15.1151 8.44777 15.2083 8.33268 15.2083V16.4583C9.1381 16.4583 9.79102 15.8054 9.79102 15H8.54102ZM6.43566 9.41882L5.52062 6.06368L4.31466 6.39258L5.22971 9.74773L6.43566 9.41882ZM3.30967 4.375L2.91601 4.37501L2.91602 5.62501L3.30968 5.625L3.30967 4.375ZM5.52062 6.06368C5.2487 5.06666 4.34311 4.37499 3.30967 4.375L3.30968 5.625C3.77942 5.62499 4.19106 5.93939 4.31466 6.39258L5.52062 6.06368Z" fill="#F9B944"/>
</svg>
