<svg width="24" height="24" viewBox="0 0 24 24" fill="none" xmlns="http://www.w3.org/2000/svg">
<path d="M20.7992 19.2771L15.5497 14.0267C16.3957 12.8642 16.8508 11.4631 16.8494 10.0253C16.8494 6.262 13.7876 3.2002 10.0243 3.2002C6.26103 3.2002 3.19922 6.262 3.19922 10.0253C3.19922 13.7885 6.26103 16.8504 10.0243 16.8504C11.4621 16.8517 12.8632 16.3966 14.0258 15.5507L19.2761 20.8002L20.7992 19.2771ZM10.0243 14.6948C9.10064 14.6949 8.1977 14.421 7.42967 13.9079C6.66164 13.3948 6.06302 12.6655 5.70951 11.8121C5.356 10.9588 5.26348 10.0198 5.44366 9.1139C5.62384 8.20798 6.06861 7.37584 6.72174 6.72271C7.37486 6.06959 8.207 5.62481 9.11292 5.44464C10.0188 5.26446 10.9578 5.35698 11.8112 5.71048C12.6645 6.06399 13.3938 6.66261 13.9069 7.43064C14.4201 8.19867 14.6939 9.10161 14.6938 10.0253C14.6923 11.2633 14.1999 12.4501 13.3245 13.3255C12.4491 14.2009 11.2623 14.6933 10.0243 14.6948Z" fill="#2B2E35"/>
</svg>
