<svg width="31" height="32" viewBox="0 0 31 32" fill="none" xmlns="http://www.w3.org/2000/svg">
<g filter="url(#filter0_d_1_12275)">
<path d="M7 10V20H17" stroke="#2570ED" stroke-width="1.5" stroke-linejoin="round"/>
<path d="M15 18.4615V17.5315C15 16.9815 15.45 16.5315 16 16.5315C16.96 16.5315 17.35 15.8515 16.87 15.0215C16.59 14.5415 16.76 13.9215 17.24 13.6515L18.15 13.1215C18.57 12.8715 19.11 13.0215 19.36 13.4415L19.42 13.5415C19.9 14.3715 20.68 14.3715 21.16 13.5415L21.22 13.4415C21.47 13.0215 22.01 12.8815 22.43 13.1215L23.34 13.6515C23.82 13.9315 23.99 14.5415 23.71 15.0215C23.23 15.8515 23.62 16.5315 24.58 16.5315C25.13 16.5315 25.58 16.9815 25.58 17.5315V18.4615C25.58 19.0115 25.13 19.4615 24.58 19.4615C23.62 19.4615 23.23 20.1415 23.71 20.9715C23.99 21.4515 23.82 22.0715 23.34 22.3415L22.43 22.8715C22.01 23.1215 21.47 22.9715 21.22 22.5515L21.16 22.4515C20.68 21.6215 19.9 21.6215 19.42 22.4515L19.36 22.5515C19.11 22.9715 18.57 23.1115 18.15 22.8715L17.24 22.3415C16.76 22.0615 16.59 21.4515 16.87 20.9715C17.35 20.1415 16.96 19.4615 16 19.4615C15.45 19.4715 15 19.0215 15 18.4615Z" stroke="#2570ED" stroke-width="1.5" stroke-miterlimit="10" stroke-linecap="round" stroke-linejoin="round"/>
<path d="M20.299 19.5921C21.1771 19.5921 21.889 18.8802 21.889 18.0021C21.889 17.124 21.1771 16.4121 20.299 16.4121C19.4209 16.4121 18.709 17.124 18.709 18.0021C18.709 18.8802 19.4209 19.5921 20.299 19.5921Z" stroke="#2570ED" stroke-width="1.5" stroke-miterlimit="10" stroke-linecap="round" stroke-linejoin="round"/>
<path d="M21 2H7L5 7C5.16667 7.83333 6 10 8 10C10 10 10.8333 8 11 7C11.1667 8 12 10 14 10C16 10 16.8333 8 17 7C17 8 17.6 10 20 10C22.4 10 23 8 23 7L21 2Z" stroke="#2570ED" stroke-width="1.5" stroke-linejoin="round"/>
<path d="M21 10V13.5" stroke="#2570ED" stroke-width="1.5"/>
</g>
<defs>
<filter id="filter0_d_1_12275" x="-1" y="0" width="32" height="32" filterUnits="userSpaceOnUse" color-interpolation-filters="sRGB">
<feFlood flood-opacity="0" result="BackgroundImageFix"/>
<feColorMatrix in="SourceAlpha" type="matrix" values="0 0 0 0 0 0 0 0 0 0 0 0 0 0 0 0 0 0 127 0" result="hardAlpha"/>
<feOffset dy="4"/>
<feGaussianBlur stdDeviation="2"/>
<feComposite in2="hardAlpha" operator="out"/>
<feColorMatrix type="matrix" values="0 0 0 0 0 0 0 0 0 0 0 0 0 0 0 0 0 0 0.25 0"/>
<feBlend mode="normal" in2="BackgroundImageFix" result="effect1_dropShadow_1_12275"/>
<feBlend mode="normal" in="SourceGraphic" in2="effect1_dropShadow_1_12275" result="shape"/>
</filter>
</defs>
</svg>
