<svg width="24" height="24" viewBox="0 0 24 24" fill="none" xmlns="http://www.w3.org/2000/svg">
<path d="M12 7.36707V10.1421" stroke="#2570ED" stroke-width="1.5" stroke-miterlimit="10" stroke-linecap="round"/>
<path d="M12.0171 3.66663C8.9504 3.66663 6.46707 6.14996 6.46707 9.21663V10.9666C6.46707 11.5333 6.23374 12.3833 5.94207 12.8666L4.88374 14.6333C4.23374 15.725 4.68374 16.9416 5.88374 17.3416C9.86707 18.6666 14.1754 18.6666 18.1587 17.3416C19.2837 16.9666 19.7671 15.65 19.1587 14.6333L18.1004 12.8666C17.8087 12.3833 17.5754 11.525 17.5754 10.9666V9.21663C17.5671 6.16663 15.0671 3.66663 12.0171 3.66663Z" stroke="#2570ED" stroke-width="1.5" stroke-miterlimit="10" stroke-linecap="round"/>
<path d="M14.7746 17.6836C14.7746 19.2086 13.5246 20.4586 11.9996 20.4586C11.2413 20.4586 10.5413 20.1419 10.0413 19.6419C9.54128 19.1419 9.22461 18.4419 9.22461 17.6836" stroke="#2570ED" stroke-width="1.5" stroke-miterlimit="10"/>
<circle cx="21" cy="3" r="3" fill="#B81111"/>
</svg>
