<svg width="161" height="49" viewBox="0 0 161 49" fill="none" xmlns="http://www.w3.org/2000/svg">
<path fill-rule="evenodd" clip-rule="evenodd" d="M73.1889 49.0005L58.7207 43.6543L59.5556 38.4951H66.8583L73.1889 49.0005Z" fill="#044DC2"/>
<path fill-rule="evenodd" clip-rule="evenodd" d="M78.5605 49.0005L93.0288 43.6543L92.2561 38.4951H84.9036L78.5605 49.0005Z" fill="#044DC2"/>
<path fill-rule="evenodd" clip-rule="evenodd" d="M36.7617 13.4588H49.0491C49.9463 13.4588 50.9806 11.8388 50.9806 11.0163V8.32452C50.9806 7.60173 50.37 7.04095 49.722 6.8291L40.2884 3.77594H45.3977C45.6594 3.77594 45.8464 3.93795 45.8464 4.21211V4.72304H50.9806V2.45499C50.9806 1.6325 49.9463 0 49.0491 0H36.7617C35.8644 0 34.8301 1.6325 34.8301 2.45499V5.24644C34.8301 5.79476 35.503 6.44278 35.989 6.60478L45.5223 9.69532H40.4504C40.1762 9.69532 39.9644 9.55824 39.9644 9.25916V8.73576H34.8301V11.0163C34.8301 11.8388 35.8644 13.4588 36.7617 13.4588ZM85.1511 13.4588L78.621 0H73.1752L66.5953 13.4588H70.2965C73.4369 11.3278 78.3095 11.3278 81.4499 13.4588H85.1511ZM74.1597 8.8853L75.8794 5.30875L77.5618 8.8853H74.1597ZM58.1337 13.4588H63.268V3.80087H69.1002V0H52.3016V3.80087H58.1337V13.4588ZM103.096 2.45499C103.096 1.6325 102.049 0 101.152 0H86.3225V13.4588H91.4692V8.44914L97.7251 13.4588H103.794L99.9308 10.4555H100.18C102.51 10.3932 103.096 9.48347 103.096 7.26526V2.45499ZM91.4692 6.90387V3.80087H97.6129C97.6877 3.80087 97.7624 3.85071 97.8372 3.95041C97.912 4.03764 97.9494 4.13734 97.9494 4.23703V6.45524C97.9494 6.75433 97.8372 6.90387 97.6129 6.90387H91.4692ZM110.237 13.4588H115.371V3.80087H121.203V0H104.417V3.80087H110.237V13.4588Z" fill="#FAB945"/>
<path fill-rule="evenodd" clip-rule="evenodd" d="M82.1486 17.1973L75.8802 27.9643L69.5995 17.1973H58.7203V43.6538C61.1877 41.2985 63.867 39.5164 66.8578 38.4946V27.8148L75.8927 43.4918L84.9026 27.8148V38.4946C88.043 39.6286 90.7597 41.3234 93.0277 43.6538V17.1973H82.1486ZM26.4814 38.4946V25.4595H11.2406L18.3563 29.522V31.8026C18.3563 32.0643 18.1071 32.5004 17.808 32.5004H8.67345C8.33698 32.5004 8.12513 32.0892 8.12513 31.8026V23.9017C8.12513 23.7647 8.18744 23.6276 8.2996 23.4531C8.42421 23.2911 8.54883 23.2039 8.67345 23.2039H26.4814V17.1973H3.05315C1.64496 17.1973 0 19.7769 0 21.0729V34.6314C0 35.9274 1.64496 38.4946 3.05315 38.4946H16.6615H18.3563H26.4814ZM57.6984 38.4946L47.355 17.1973H38.7564L28.3507 38.4946H34.1953C39.1676 35.1174 46.869 35.1174 51.8413 38.4946H57.6984ZM43.0183 25.609L45.6976 31.2542H40.3141L43.0183 25.609ZM103.259 38.4946V17.1973H95.1213V38.4946H103.259ZM123.696 27.6528L113.316 17.1973H105.34V38.4946H113.44H113.478V28.0391L123.821 38.4946H131.834V17.1973H123.696V27.6528ZM160.409 38.4946V25.4595H145.168L152.284 29.522V31.8026C152.284 32.0643 152.035 32.5004 151.736 32.5004H142.601C142.265 32.5004 142.053 32.0892 142.053 31.8026V23.9017C142.053 23.7647 142.115 23.6276 142.227 23.4531C142.352 23.2911 142.464 23.2039 142.601 23.2039H160.409V17.1973H136.981C135.573 17.1973 133.928 19.7769 133.928 21.0729V34.6314C133.928 35.9274 135.573 38.4946 136.981 38.4946H150.589H152.284H160.409Z" fill="#2066D8"/>
<path fill-rule="evenodd" clip-rule="evenodd" d="M105.34 20.6866V38.4946H113.44H113.477V28.0391C112.181 24.8489 109.664 21.9951 105.34 20.6866Z" fill="url(#paint0_linear_1_5190)"/>
<defs>
<linearGradient id="paint0_linear_1_5190" x1="114.376" y1="25.9933" x2="104.444" y2="33.194" gradientUnits="userSpaceOnUse">
<stop stop-color="#0245B0"/>
<stop offset="0.780392" stop-color="#2066D8"/>
<stop offset="1" stop-color="#2066D8"/>
</linearGradient>
</defs>
</svg>
