<svg width="24" height="24" viewBox="0 0 24 24" fill="none" xmlns="http://www.w3.org/2000/svg">
<path fill-rule="evenodd" clip-rule="evenodd" d="M16.1983 9.2981L19.2265 9.2981C19.6542 9.2981 20.0009 9.64481 20.0009 10.0725C20.0009 10.5002 19.6542 10.8469 19.2265 10.8469H16.1986C15.5135 10.8474 14.9591 11.4021 14.959 12.0853C14.9595 12.7693 15.5137 13.3236 16.1983 13.3243H19.2265C19.6542 13.3243 20.0009 13.671 20.0009 14.0987C20.0009 14.5264 19.6542 14.8731 19.2265 14.8731H16.1983C14.6595 14.8722 13.4111 13.6256 13.4102 12.0861C13.4102 10.5457 14.6599 9.29904 16.1983 9.2981Z" fill="#2570ED"/>
<path fill-rule="evenodd" clip-rule="evenodd" d="M15.5312 12.0393C15.5312 11.6116 15.878 11.2649 16.3057 11.2649H16.539C16.9667 11.2649 17.3134 11.6116 17.3134 12.0393C17.3134 12.467 16.9667 12.8137 16.539 12.8137H16.3057C15.878 12.8137 15.5312 12.467 15.5312 12.0393Z" fill="#2570ED"/>
<path fill-rule="evenodd" clip-rule="evenodd" d="M8.83448 6.34886C7.09432 6.34886 5.68358 7.75961 5.68358 9.49977V14.8683C5.68358 16.6084 7.09432 18.0192 8.83448 18.0192H15.2999C17.04 18.0192 18.4508 16.6084 18.4508 14.8683V9.49977C18.4508 7.75961 17.04 6.34886 15.2999 6.34886H8.83448ZM4.13477 9.49977C4.13477 6.90422 6.23894 4.80005 8.83448 4.80005H15.2999C17.8954 4.80005 19.9996 6.90422 19.9996 9.49977V14.8683C19.9996 17.4638 17.8954 19.568 15.2999 19.568H8.83448C6.23894 19.568 4.13477 17.4638 4.13477 14.8683V9.49977Z" fill="#2570ED"/>
<path fill-rule="evenodd" clip-rule="evenodd" d="M7.52734 8.96923C7.52734 8.54154 7.87406 8.19482 8.30175 8.19482H12.3403C12.768 8.19482 13.1147 8.54154 13.1147 8.96923C13.1147 9.39692 12.768 9.74364 12.3403 9.74364H8.30175C7.87406 9.74364 7.52734 9.39692 7.52734 8.96923Z" fill="#2570ED"/>
</svg>
